<?xml version="1.0" encoding="UTF-8"?>
<svg width="243px" height="48px" viewBox="0 0 243 48" version="1.1" xmlns="http://www.w3.org/2000/svg" xmlns:xlink="http://www.w3.org/1999/xlink">
    <!-- Generator: Sketch 52.3 (67297) - http://www.bohemiancoding.com/sketch -->
    <title>Very Busy</title>
    <desc>Created with Sketch.</desc>
    <g id="Wireframes" stroke="none" stroke-width="1" fill="none" fill-rule="evenodd">
        <g id="General-log-in" transform="translate(-227.000000, -334.000000)" fill="#FFFFFF">
            <path d="M252.492578,334.306641 L260.13418,334.306641 L248.000391,370 L239.748438,370 L227.639063,334.306641 L235.280664,334.306641 L241.994531,355.546875 C242.368882,356.800136 242.755434,358.260897 243.154199,359.929199 C243.552964,361.597502 243.801171,362.757158 243.898828,363.408203 C244.077866,361.9108 244.688211,359.290383 245.729883,355.546875 L252.492578,334.306641 Z M273.943164,347.490234 C272.36438,347.490234 271.127413,347.990718 270.232227,348.991699 C269.33704,349.992681 268.82435,351.412751 268.694141,353.251953 L279.143359,353.251953 C279.110807,351.412751 278.630669,349.992681 277.70293,348.991699 C276.775191,347.990718 275.521948,347.490234 273.943164,347.490234 Z M274.992969,370.488281 C270.598416,370.488281 267.164205,369.275728 264.690234,366.850586 C262.216264,364.425444 260.979297,360.991233 260.979297,356.547852 C260.979297,351.974261 262.122677,348.438326 264.409473,345.939941 C266.696268,343.441557 269.857857,342.192383 273.894336,342.192383 C277.751777,342.192383 280.754677,343.291005 282.903125,345.488281 C285.051573,347.685558 286.125781,350.721009 286.125781,354.594727 L286.125781,358.208008 L268.523242,358.208008 C268.604623,360.323904 269.231244,361.975906 270.403125,363.164062 C271.575006,364.352219 273.21887,364.946289 275.334766,364.946289 C276.978654,364.946289 278.533001,364.775392 279.997852,364.433594 C281.462703,364.091795 282.992635,363.546553 284.587695,362.797852 L284.587695,368.55957 C283.285605,369.210615 281.894018,369.694823 280.412891,370.012207 C278.931763,370.329591 277.125141,370.488281 274.992969,370.488281 Z M307.014844,342.192383 C308.023963,342.192383 308.862171,342.265624 309.529492,342.412109 L308.967969,349.394531 C308.365752,349.23177 307.633338,349.150391 306.770703,349.150391 C304.394389,349.150391 302.543008,349.760736 301.216504,350.981445 C299.89,352.202155 299.226758,353.911122 299.226758,356.108398 L299.226758,370 L291.780469,370 L291.780469,342.705078 L297.420117,342.705078 L298.51875,347.294922 L298.884961,347.294922 C299.731319,345.764966 300.8747,344.532068 302.315137,343.596191 C303.755574,342.660314 305.322127,342.192383 307.014844,342.192383 Z M310.179297,342.705078 L318.333594,342.705078 L323.484961,358.061523 C323.924416,359.396166 324.22552,360.974926 324.388281,362.797852 L324.534766,362.797852 C324.713803,361.121411 325.063734,359.542651 325.58457,358.061523 L330.638281,342.705078 L338.62168,342.705078 L327.073828,373.491211 C326.01588,376.339532 324.506292,378.471673 322.54502,379.887695 C320.583747,381.303718 318.292917,382.011719 315.672461,382.011719 C314.386647,382.011719 313.125267,381.873374 311.888281,381.59668 L311.888281,375.688477 C312.783468,375.900066 313.760021,376.005859 314.817969,376.005859 C316.136335,376.005859 317.287853,375.603031 318.272559,374.797363 C319.257264,373.991695 320.026299,372.775073 320.579688,371.147461 L321.019141,369.804688 L310.179297,342.705078 Z M355.302148,334.306641 L366.410547,334.306641 C371.472421,334.306641 375.146701,335.026848 377.433496,336.467285 C379.720291,337.907722 380.863672,340.198552 380.863672,343.339844 C380.863672,345.472016 380.363189,347.221673 379.362207,348.588867 C378.361225,349.956062 377.030672,350.777993 375.370508,351.054688 L375.370508,351.298828 C377.632889,351.803388 379.264546,352.747389 380.265527,354.130859 C381.266509,355.51433 381.766992,357.353504 381.766992,359.648438 C381.766992,362.903662 380.59106,365.442699 378.23916,367.265625 C375.88726,369.088551 372.693119,370 368.656641,370 L355.302148,370 L355.302148,334.306641 Z M362.870508,348.442383 L367.265039,348.442383 C369.315831,348.442383 370.801005,348.125003 371.720605,347.490234 C372.640206,346.855466 373.1,345.805671 373.1,344.34082 C373.1,342.973626 372.599517,341.993004 371.598535,341.398926 C370.597554,340.804847 369.014724,340.507812 366.85,340.507812 L362.870508,340.507812 L362.870508,348.442383 Z M362.870508,354.448242 L362.870508,363.75 L367.802148,363.75 C369.885492,363.75 371.423563,363.351241 372.416406,362.553711 C373.40925,361.756181 373.905664,360.53549 373.905664,358.891602 C373.905664,355.929347 371.7898,354.448242 367.558008,354.448242 L362.870508,354.448242 Z M407.245898,370 L406.244922,366.508789 L405.854297,366.508789 C405.056767,367.778327 403.925593,368.758948 402.460742,369.450684 C400.995891,370.142419 399.327614,370.488281 397.455859,370.488281 C394.249463,370.488281 391.832495,369.629729 390.204883,367.912598 C388.57727,366.195467 387.763477,363.725602 387.763477,360.50293 L387.763477,342.705078 L395.209766,342.705078 L395.209766,358.647461 C395.209766,360.616872 395.559697,362.093908 396.25957,363.078613 C396.959444,364.063319 398.074341,364.555664 399.604297,364.555664 C401.687641,364.555664 403.193159,363.85987 404.120898,362.468262 C405.048637,361.076653 405.5125,358.769547 405.5125,355.546875 L405.5125,342.705078 L412.958789,342.705078 L412.958789,370 L407.245898,370 Z M439.414258,361.894531 C439.414258,364.694024 438.441774,366.826165 436.496777,368.291016 C434.551781,369.755867 431.642467,370.488281 427.76875,370.488281 C425.783063,370.488281 424.090372,370.354005 422.690625,370.085449 C421.290878,369.816893 419.98067,369.422203 418.759961,368.901367 L418.759961,362.749023 C420.143431,363.400068 421.701847,363.94531 423.435254,364.384766 C425.168661,364.824221 426.694525,365.043945 428.012891,365.043945 C430.714727,365.043945 432.065625,364.262703 432.065625,362.700195 C432.065625,362.114255 431.88659,361.638185 431.528516,361.271973 C431.170441,360.90576 430.551958,360.490725 429.673047,360.026855 C428.794136,359.562986 427.622273,359.021813 426.157422,358.40332 C424.057802,357.52441 422.515662,356.710616 421.530957,355.961914 C420.546252,355.213212 419.830113,354.35466 419.38252,353.38623 C418.934926,352.417801 418.711133,351.225593 418.711133,349.80957 C418.711133,347.384428 419.651065,345.508633 421.530957,344.182129 C423.410849,342.855625 426.076024,342.192383 429.526562,342.192383 C432.814339,342.192383 436.01255,342.908521 439.121289,344.34082 L436.875195,349.711914 C435.508001,349.125974 434.230344,348.645835 433.042187,348.271484 C431.85403,347.897134 430.641478,347.709961 429.404492,347.709961 C427.207216,347.709961 426.108594,348.304031 426.108594,349.492188 C426.108594,350.159509 426.462594,350.737302 427.170605,351.225586 C427.878617,351.71387 429.428894,352.438146 431.821484,353.398438 C433.953656,354.261072 435.516141,355.066728 436.508984,355.81543 C437.501828,356.564131 438.234242,357.426753 438.70625,358.40332 C439.178258,359.379888 439.414258,360.543613 439.414258,361.894531 Z M440.918555,342.705078 L449.072852,342.705078 L454.224219,358.061523 C454.663674,359.396166 454.964778,360.974926 455.127539,362.797852 L455.274023,362.797852 C455.453061,361.121411 455.802992,359.542651 456.323828,358.061523 L461.377539,342.705078 L469.360937,342.705078 L457.813086,373.491211 C456.755138,376.339532 455.24555,378.471673 453.284277,379.887695 C451.323004,381.303718 449.032175,382.011719 446.411719,382.011719 C445.125905,382.011719 443.864524,381.873374 442.627539,381.59668 L442.627539,375.688477 C443.522726,375.900066 444.499279,376.005859 445.557227,376.005859 C446.875593,376.005859 448.027111,375.603031 449.011816,374.797363 C449.996522,373.991695 450.765557,372.775073 451.318945,371.147461 L451.758398,369.804688 L440.918555,342.705078 Z" id="Very-Busy"></path>
        </g>
    </g>
</svg>